<?xml version="1.0" standalone="no"?>
<!DOCTYPE svg PUBLIC "-//W3C//DTD SVG 20010904//EN"
 "http://www.w3.org/TR/2001/REC-SVG-20010904/DTD/svg10.dtd">
<svg version="1.0" xmlns="http://www.w3.org/2000/svg"
 width="1150.000000pt" height="1150.000000pt" viewBox="0 0 1150.000000 1150.000000"
 preserveAspectRatio="xMidYMid meet">
<metadata>
Created by potrace 1.16, written by Peter Selinger 2001-2019
</metadata>
<g transform="translate(0.000000,1150.000000) scale(0.100000,-0.100000)"
fill="#000000" stroke="none">
<path d="M5390 10581 c-200 -13 -481 -48 -600 -75 -36 -8 -103 -22 -150 -31
-47 -10 -128 -30 -180 -46 -52 -15 -120 -34 -150 -43 -77 -20 -276 -90 -345
-121 -32 -14 -62 -25 -68 -25 -5 0 -48 -18 -94 -40 -47 -22 -87 -40 -89 -40
-14 0 -368 -184 -394 -205 -8 -6 -55 -35 -105 -64 -281 -163 -608 -423 -897
-715 -245 -246 -455 -515 -665 -851 -27 -43 -169 -297 -193 -344 -66 -133
-146 -317 -177 -411 -14 -41 -29 -79 -33 -85 -24 -33 -164 -536 -181 -649 -6
-39 -21 -125 -34 -191 -40 -199 -49 -350 -50 -780 0 -442 9 -572 56 -835 44
-240 123 -571 148 -619 6 -10 19 -49 30 -87 39 -137 194 -511 264 -639 12 -22
34 -62 49 -90 15 -27 43 -79 63 -115 44 -81 77 -133 178 -285 67 -100 218
-307 237 -325 3 -3 37 -43 75 -90 305 -372 734 -737 1180 -1005 115 -68 374
-204 499 -260 247 -112 612 -235 851 -286 226 -49 294 -61 500 -86 201 -25
250 -28 570 -27 322 0 368 2 580 28 126 15 232 29 235 31 3 2 73 17 155 34
254 53 556 144 795 241 30 13 64 26 75 31 63 25 368 177 470 234 113 64 392
245 516 336 l56 41 49 -24 c43 -22 619 -331 764 -411 30 -16 98 -52 150 -80
52 -27 100 -53 105 -57 6 -4 48 -28 95 -53 47 -24 186 -100 310 -167 280 -153
298 -162 318 -158 16 3 17 149 22 2098 3 1152 8 2104 10 2114 11 45 4 46 -850
46 -443 0 -811 -4 -818 -8 -10 -7 -13 -282 -15 -1423 l-2 -1414 -23 -3 c-13
-2 -59 16 -110 44 -48 26 -125 67 -172 92 -47 24 -123 66 -170 92 -47 26 -123
68 -170 92 -94 50 -114 61 -505 272 -148 80 -281 146 -295 146 -14 0 -45 -12
-70 -26 -217 -126 -536 -263 -700 -299 -30 -7 -100 -24 -155 -38 -181 -47
-341 -62 -650 -62 -332 0 -509 20 -750 84 -638 169 -1162 507 -1593 1026 -178
214 -392 581 -472 810 -10 28 -29 82 -43 120 -63 176 -101 331 -143 590 -22
133 -29 437 -15 580 59 574 253 1083 583 1532 353 481 848 850 1413 1056 303
110 686 177 1011 177 307 0 693 -62 939 -151 33 -12 83 -29 110 -39 177 -63
430 -193 607 -311 542 -363 961 -887 1177 -1472 28 -75 51 -141 51 -147 0 -5
14 -51 30 -102 17 -51 40 -145 50 -208 24 -138 35 -181 52 -192 7 -4 383 -8
835 -8 l822 0 12 21 c12 22 6 173 -11 279 -71 445 -128 667 -280 1085 -65 179
-211 476 -352 715 -276 467 -680 921 -1133 1276 -319 250 -616 429 -1010 607
-107 48 -449 176 -510 191 -11 2 -76 20 -145 40 -69 19 -199 51 -290 70 -149
32 -223 43 -525 77 -121 13 -560 19 -715 10z"/>
<path d="M5410 8365 c-870 -97 -1627 -639 -2001 -1430 -125 -265 -209 -584
-227 -860 -13 -208 2 -540 32 -693 68 -350 186 -645 372 -928 346 -527 879
-906 1489 -1059 189 -48 327 -66 560 -72 355 -9 639 43 1012 185 128 49 410
211 569 327 14 10 26 5 154 -65 41 -23 118 -64 170 -92 141 -75 450 -243 538
-291 101 -56 109 -59 116 -41 3 9 6 477 6 1040 l0 1024 -448 0 -448 0 -28 -72
c-127 -332 -374 -634 -656 -805 -94 -56 -324 -168 -400 -193 -304 -103 -631
-117 -930 -41 -604 154 -1072 655 -1191 1274 -85 441 34 897 332 1272 100 126
271 278 411 363 626 383 1406 303 1943 -200 204 -191 349 -418 436 -683 l41
-125 460 0 460 0 -5 23 c-3 12 -11 54 -17 92 -16 92 -56 253 -85 340 -45 133
-57 161 -130 313 -359 742 -1087 1273 -1904 1388 -153 21 -478 26 -631 9z"/>
</g>
</svg>
